<svg width="122" height="155" fill="none" xmlns="http://www.w3.org/2000/svg"><rect x="2.5" y="2.5" width="117" height="140" rx="3.5" stroke="#fff" stroke-width="5"/><path d="M23 152v-7a2 2 0 0 1 2-2h11a2 2 0 0 1 2 2v7a2 2 0 0 1-2 2H25a2 2 0 0 1-2-2ZM84 152v-7a2 2 0 0 1 2-2h11a2 2 0 0 1 2 2v7a2 2 0 0 1-2 2H86a2 2 0 0 1-2-2Z" stroke="#fff" stroke-width="2"/><circle cx="60.5" cy="82.5" r="44" stroke="#fff" stroke-width="3"/><path d="M17.5 83c12.4-10.4 16.5-6.833 18-2.5 1.426 5.132 10.436 6.387 17.268-.367 1.308-1.292 4.22-.827 5.353.621 3.694 4.725 11.144 5.981 17.379-.254 10-10 28.5 24.5 28.5-4.5" stroke="#fff" stroke-width="2"/><circle cx="17" cy="18" r="3.5" stroke="#fff"/><circle cx="29" cy="18" r="3.5" stroke="#fff"/><rect x="77.5" y="12.5" width="34" height="11" rx="3.5" stroke="#fff"/></svg>